<?xml version="1.0" encoding="UTF-8"?>
<svg xmlns="http://www.w3.org/2000/svg" version="1.1" viewBox="0 0 8192 1582.1">
  <defs>
    <style>
      .cls-1 {
        fill: #fff;
      }

      .cls-2 {
        fill: none;
        stroke: #000;
        stroke-miterlimit: 7.9;
        stroke-width: 15.8px;
      }

      .cls-3 {
        fill: #ee3038;
      }

      .cls-4 {
        fill: #070707;
      }
    </style>
  </defs>
  <!-- Generator: Adobe Illustrator 28.6.0, SVG Export Plug-In . SVG Version: 1.2.0 Build 709)  -->
  <g>
    <g id="Layer_1">
      <g>
        <g>
          <path class="cls-3" d="M917.3,675.9c-23.2-11.2-41.4-27.3-54.6-48.2s-19.8-45.4-19.8-73.4,6.8-52.1,20.2-74.1c13.5-22,32.1-39.2,55.8-51.7s50.6-18.7,80.4-18.7,29,1.5,45.2,4.4c16.2,2.9,32.8,7.3,49.9,13.2v73.6h-6c-6.9-23.2-18-41.9-33.5-56.4-15.5-14.5-33.8-21.7-54.8-21.7s-35.4,5.4-49.9,16.4c-14.5,10.9-25.8,26-33.7,45.1-8,19.2-12,40.3-12,63.5s4,47,12,67.1,19.1,35.9,33.5,47.4c14.3,11.6,31,17.3,49.7,17.3s29.9-3.3,42.9-9.9,24.7-14.9,35.2-24.8l21.7,19.1c-13.4,8.9-28.8,15.9-46.3,21-17.5,5.1-36.8,7.6-57.8,7.6s-55.1-5.6-78.3-16.8h.2ZM1033,565.9c-10.1-4.7-24.5-7.8-43.3-9.4v-5.8h142.5v5.8c-10.2,1.5-18.2,4.6-23.9,9.4-5.7,4.7-8.5,13.3-8.5,25.8v72.4l-51.6,10.3v-82.7c0-12.4-5-21-15.2-25.8h0Z"/>
          <path class="cls-3" d="M1207,677.4c-16.8-9.3-30.2-22.1-40.1-38.6-10-16.5-15-35.1-15-55.8s5-39.1,14.8-55.3c9.8-16.1,23.2-28.8,40.1-37.9,16.9-9.1,35.4-13.6,55.5-13.6s38.7,4.6,55.5,13.6c16.9,9.1,30.3,21.7,40.3,38,9.9,16.2,15,34.7,15,55.1s-5,39.3-15,55.8-23.4,29.3-40.3,38.6c-16.9,9.3-35.4,13.9-55.5,13.9s-38.6-4.6-55.4-13.9ZM1297.2,667.9c9.5-9.6,16.7-21.9,21.4-37s7.2-31.2,7.2-48.2-2.4-32.9-7.2-47.7-11.9-26.7-21.4-35.8c-9.5-9.2-21.1-13.8-34.7-13.8s-24.9,4.6-34.3,13.9c-9.5,9.3-16.5,21.4-21.4,36.3s-7.3,30.8-7.3,47.7,2.4,33.1,7.3,48.2c4.9,15.1,12.1,27.3,21.4,36.7,9.5,9.4,20.9,14.1,34.3,14.1s25.2-4.8,34.7-14.4h0Z"/>
          <path class="cls-3" d="M1386.2,688.1v-4.6c8.7-1.2,15.4-3.5,20-6.9s7-10,7-19.5v-146.9c0-9.5-2.4-16-7-19.5s-11.3-5.8-20-6.9v-4.6h69.9v209.1h-69.9ZM1446.9,479h114.4l.9,9,3.9,45.3-5.5.3c-3.2-13.5-9.1-24.4-17.6-32.5-8.4-8.1-21.7-12.2-39.6-12.2h-56.6v-9.8h0ZM1446.9,576h46.5c10.6,0,18-2.2,21.9-6.7,4-4.5,6.7-10.5,8-18h4.9v58.9h-4.9c-1.3-7.7-3.9-13.8-8-18.1s-11.3-6.5-21.9-6.5h-46.5v-9.5h0ZM1446.9,678.3h54c19.3,0,33.6-4.8,42.9-14.3,9.3-9.6,15.8-22.2,19.5-37.9l5.8.3-5.5,53.2-.6,8.7h-116v-10Z"/>
          <path class="cls-3" d="M1588.6,688.1v-4.6c8.4-1.2,15-3.5,19.5-6.9,4.6-3.5,6.9-10,6.9-19.5v-146.9c0-9.5-2.3-16-6.9-19.5s-11-5.8-19.5-6.9v-4.6h93.3v4.6c-8.3,1.2-14.7,3.5-19.1,6.9-4.6,3.5-6.9,10-6.9,19.5v178h-67.3q0,0,0,0ZM1646.4,678.3h49.4c19.3,0,33.6-4.8,42.8-14.3,9.3-9.6,15.8-22.2,19.5-37.9l5.8.3-5.5,53.2-.6,8.7h-111.5v-10Z"/>
          <path class="cls-3" d="M1962,675.9c-23.2-11.2-41.4-27.3-54.6-48.2s-19.8-45.4-19.8-73.4,6.8-52.1,20.2-74.1c13.5-22,32.1-39.2,55.8-51.7,23.7-12.4,50.6-18.7,80.4-18.7s29,1.5,45.2,4.4c16.2,2.9,32.8,7.3,49.9,13.2v73.6h-6c-6.9-23.2-18-41.9-33.5-56.4-15.5-14.5-33.8-21.7-54.8-21.7s-35.4,5.4-49.9,16.4c-14.5,10.9-25.8,26-33.7,45.1-8,19.2-12,40.3-12,63.5s4,47,12,67.1c8,20.1,19.1,35.9,33.5,47.4,14.3,11.6,31,17.3,49.7,17.3s29.9-3.3,42.8-9.9,24.7-14.9,35.2-24.8l21.7,19.1c-13.4,8.9-28.8,15.9-46.3,21-17.5,5.1-36.8,7.6-57.8,7.6s-55.1-5.6-78.3-16.8h.2ZM2077.5,565.9c-10.1-4.7-24.5-7.8-43.3-9.4v-5.8h142.5v5.8c-10.2,1.5-18.2,4.6-23.9,9.4s-8.5,13.3-8.5,25.8v72.4l-51.6,10.3v-82.7c0-12.4-5-21-15.2-25.8h0Z"/>
          <path class="cls-3" d="M2185.7,688.1v-4.6h.3c8-1.2,14.8-3.4,20.3-6.7s10.2-9.4,14.1-18.3l79.2-179.4h9.5l-2,9.6-74.4,169.8c-3.9,8.9-4.1,15-.5,18.3,3.5,3.3,9.7,5.5,18.4,6.7v4.6h-65,0ZM2249.8,607.4h111.1l1.7,9.6h-116.7l3.9-9.6h0ZM2333.3,688.1v-4.6c8.7-1.2,14.8-3.4,18.4-6.7s3.4-9.4-.5-18.3l-63-140.8,17.6-38.6h10.4l80.9,179.4c3.9,8.7,8.2,14.7,13,18,4.7,3.3,10.5,5.6,17.3,6.9h.9v4.6h-94.9Z"/>
          <path class="cls-3" d="M2432.4,688.1v-4.6c8.9-1.2,15.8-3.5,20.8-6.9,5-3.5,7.5-10,7.5-19.5v-146.9c0-9.5-2.5-16-7.5-19.5s-11.9-5.8-20.8-6.9v-4.6h41.3v178c0,9.5,2.4,16,7.3,19.5,4.9,3.5,11.7,5.8,20.6,6.9v4.6h-69.2ZM2465.8,508.1l2-29.1h28l125.1,154.5,4.3,54.6h-12.7l-146.5-180.1h0ZM2614.6,667.2l.3-157.1c0-9.5-2.5-16-7.5-19.5s-11.9-5.8-20.8-6.9v-4.6h67.9v4.6c-8.4,1.2-15,3.5-19.8,6.9-4.8,3.5-7.2,10-7.2,19.5v178h-6.1l-6.9-20.9h0Z"/>
          <path class="cls-3" d="M2727.6,678.8c-17.6-8.5-31.5-20.8-41.6-36.7-10.1-16-15.1-34.6-15.1-55.9s5.1-39.7,15.4-56.5c10.3-16.8,24.5-29.9,42.5-39.3,18.1-9.5,38.5-14.3,61.3-14.3s22.1,1.1,34.4,3.3c12.4,2.2,25,5.6,38,10v56h-4.6c-5.2-17.6-13.7-31.9-25.5-43-11.8-11-25.8-16.5-41.7-16.5s-26.9,4.2-38,12.5c-11,8.3-19.6,19.8-25.7,34.4-6.1,14.7-9.1,30.7-9.1,48.4s3,35.8,9.1,51.1c6.1,15.3,14.6,27.3,25.5,36.2,10.9,8.8,23.6,13.2,37.9,13.2s22.8-2.5,32.7-7.6c9.8-5,18.8-11.3,26.8-18.9l16.5,14.5c-10.2,6.8-21.9,12.1-35.3,16-13.3,3.9-28,5.8-44,5.8s-42-4.3-59.5-12.8h0ZM2815.6,595.1c-7.7-3.5-18.7-6-33-7.1v-4.3h108.5v4.3c-7.8,1.2-13.9,3.5-18.2,7.1-4.3,3.6-6.5,10.1-6.5,19.6v55.1l-39.3,7.9v-63c0-9.5-3.9-16-11.5-19.6h0Z"/>
          <path class="cls-3" d="M2883.3,688.1v-4.6h.3c8-1.2,14.8-3.4,20.3-6.7s10.2-9.4,14.1-18.3l79.2-179.4h9.5l-2,9.6-74.4,169.8c-3.9,8.9-4.1,15-.5,18.3,3.5,3.3,9.7,5.5,18.4,6.7v4.6h-65,0ZM2947.4,607.4h111.1l1.7,9.6h-116.7l3.9-9.6h0ZM3030.9,688.1v-4.6c8.7-1.2,14.8-3.4,18.4-6.7s3.4-9.4-.5-18.3l-63-140.8,17.6-38.6h10.4l80.9,179.4c3.9,8.7,8.2,14.7,13,18,4.7,3.3,10.5,5.6,17.3,6.9h.9v4.6h-94.9Z"/>
          <path class="cls-3" d="M841.2,1145.5v-6.1c11.3-1.5,20.1-4.6,26.2-9.1s9.1-13.1,9.1-25.5v-192.9c0-12.4-3.1-21-9.1-25.5-6.1-4.6-14.9-7.6-26.2-9.1v-6.1h91.7v274.4h-91.7ZM921.8,1133h36.7c20.5,0,38.2-5.7,53.1-16.9,15-11.3,26.2-26.5,33.9-45.8,7.6-19.2,11.3-40.3,11.1-63.1,0-22.4-3.9-42.9-11.5-61.6-7.6-18.7-18.9-33.6-33.7-44.8s-32.5-16.8-52.9-16.8h-33.7l-5.5.4v.8-14.1h55.8c25.6,0,49.3,5.8,71.2,17.2s39.5,27.4,52.7,48c13.2,20.6,19.8,44.2,19.8,70.9s-6.5,51.4-19.6,72.4c-13.1,21.1-30.6,37.3-52.7,48.8s-45.8,17.2-71.4,17.2h-53.3v-12.5h0Z"/>
          <path class="cls-3" d="M1136,1145.5v-6.1c11.3-1.5,20.1-4.6,26.2-9.1s9.1-13.1,9.1-25.5v-192.9c0-12.4-3.1-21-9.1-25.5-6.1-4.6-14.9-7.6-26.2-9.1v-6.1h91.7v274.4h-91.7ZM1215.7,871.1h150.1l1.3,11.8,5.1,59.5-7.2.4c-4.3-17.8-12-32.1-23-42.7-11.1-10.7-28.4-16-52.1-16h-74.2v-13h0ZM1215.7,998.4h61c13.9,0,23.6-2.9,28.8-8.7,5.3-5.8,8.7-13.7,10.5-23.6h6.4v77.4h-6.4c-1.7-10.2-5.2-18.1-10.5-23.8-5.3-5.8-14.9-8.6-28.8-8.6h-61v-12.6ZM1215.7,1132.6h70.8c25.3,0,44.1-6.3,56.3-18.9s20.7-29.1,25.6-49.8l7.6.4-7.2,69.8-.9,11.4h-152.3v-12.9h0Z"/>
          <path class="cls-3" d="M1513.9,871.1v6.1c-11.3,1.5-19.4,4.4-24.1,8.7s-4.3,12.4,1.1,24l84,186.4-22.2,49.2h-13.6l-109.2-236c-5.4-11.2-11.3-18.9-17.5-23.2-6.2-4.3-13.8-7.4-22.6-9.1h-1.3v-6.1h125.4,0ZM1706.3,871.1v6.1h-.4c-10.6,1.5-19.4,4.4-26.6,8.7s-13.5,12.4-18.6,24l-100.3,235.6h-12l2.5-12.6,94.3-223c4.8-11.7,4.8-19.7,0-24s-12.9-7.2-24.3-8.7v-6.1h85.4Z"/>
          <path class="cls-3" d="M1718.6,1145.5v-6.1c11.3-1.5,20.1-4.6,26.2-9.1s9.1-13.1,9.1-25.5v-192.9c0-12.4-3.1-21-9.1-25.5-6.1-4.6-14.9-7.6-26.2-9.1v-6.1h91.7v274.4h-91.7ZM1798.4,871.1h150.1l1.3,11.8,5.1,59.5-7.2.4c-4.3-17.8-12-32.1-23-42.7-11.1-10.7-28.4-16-52.1-16h-74.2v-13h0ZM1798.4,998.4h61c13.9,0,23.6-2.9,28.8-8.7,5.3-5.8,8.7-13.7,10.5-23.6h6.4v77.4h-6.4c-1.7-10.2-5.2-18.1-10.5-23.8-5.3-5.8-14.9-8.6-28.8-8.6h-61v-12.6ZM1798.4,1132.6h70.8c25.3,0,44.1-6.3,56.3-18.9s20.7-29.1,25.6-49.8l7.6.4-7.2,69.8-.9,11.4h-152.3v-12.9h0Z"/>
          <path class="cls-3" d="M1984.3,1145.5v-6.1c11.1-1.5,19.6-4.6,25.6-9.1s9-13.1,9-25.5v-192.9c0-12.4-3-21-9-25.5-6-4.6-14.5-7.6-25.6-9.1v-6.1h122.4v6.1c-10.8,1.5-19.2,4.6-25.1,9.1-6,4.6-9,13.1-9,25.5v233.6h-88.3ZM2060.3,1132.6h64.8c25.3,0,44.1-6.3,56.3-18.9s20.7-29.1,25.6-49.8l7.6.4-7.2,69.8-.9,11.4h-146.3v-12.9h0Z"/>
          <path class="cls-3" d="M2302.3,1131.4c-22.1-12.2-39.6-29.1-52.7-50.7-13.1-21.6-19.6-46-19.6-73.2s6.5-51.4,19.4-72.6c12.9-21.2,30.5-37.8,52.7-49.8s46.5-17.9,72.9-17.9,50.7,6,72.9,17.9c22.2,12,39.8,28.6,52.9,49.9,13.1,21.3,19.6,45.5,19.6,72.4s-6.5,51.6-19.6,73.2c-13.1,21.6-30.7,38.5-52.9,50.7-22.2,12.2-46.5,18.3-72.9,18.3s-50.7-6.1-72.7-18.2h0ZM2420.7,1119c12.5-12.6,21.9-28.8,28.1-48.6s9.4-40.9,9.4-63.3-3.2-43.2-9.4-62.5c-6.2-19.3-15.7-35-28.1-47.1-12.5-12.1-27.7-18.1-45.6-18.1s-32.6,6.1-45,18.3c-12.4,12.2-21.7,28.1-28.1,47.7-6.4,19.5-9.6,40.4-9.6,62.5s3.2,43.5,9.6,63.3c6.4,19.8,15.8,35.9,28.1,48.2,12.4,12.4,27.3,18.5,45,18.5s33.2-6.3,45.6-18.8h0Z"/>
          <path class="cls-3" d="M2537.6,1145.5v-6.1c11.3-1.5,20.1-4.6,26.2-9.1s9.1-13.1,9.1-25.5v-192.9c0-12.4-3.1-21-9.1-25.5-6.1-4.6-14.9-7.6-26.2-9.1v-6.1h92.2v233.7c0,12.4,3.1,21,9.1,25.5,6.1,4.6,14.7,7.6,25.8,9.1v6.1h-127.1ZM2615.2,871.1h71.2c19.9,0,37.6,3.6,53.1,10.9s27.6,17.3,36.2,29.9,13,26.8,13,42.3-5,33-15,45.8c-9.9,12.7-23.2,22.3-39.9,28.8s-35.2,9.7-55.7,9.7h-61.4l-1.7-167.3h.2ZM2700.7,1015.9c9.5-6.6,16.8-15.3,21.7-25.9,5-10.7,7.5-22.6,7.5-35.8s-2.4-24.4-7-35.1c-4.7-10.7-11.7-19.2-20.9-25.5-9.2-6.4-20.2-9.5-33.1-9.5h-44.8l1.3,141.8h41.4c13.1,0,24.4-3.3,33.9-9.9h0Z"/>
          <path class="cls-3" d="M2811,1145.5v-5.8c13.1-1.5,23.2-4.6,30.2-9.1s10.6-13.2,10.6-25.9v-192.5c0-12.4-3.7-21-11.1-25.8-7.4-4.7-17.9-7.8-31.6-9.4v-6.1h57.2v233.7c0,12.7,3.5,21.3,10.6,25.9,7.1,4.6,17.1,7.6,29.9,9.1v5.8h-95.9,0ZM2847.6,871.1h58.8l94.3,206.2-21.3,68.2h-9l-122.9-274.4h0ZM2970.9,1129.9l107-258.8h15.8l-114.3,274.4h-7.6l-.9-15.6h0ZM3042.6,1145.5v-6.1c11.1-1.5,19.8-4.6,26-9.1s9.4-13.1,9.4-25.5v-233.7h91.3v6.1c-11.1,1.5-19.8,4.6-26,9.1s-9.4,13.1-9.4,25.5v192.9c0,12.4,3.2,21,9.4,25.5s15,7.6,26,9.1v6.1h-126.7Z"/>
          <path class="cls-3" d="M3197,1145.5v-6.1c11.3-1.5,20.1-4.6,26.2-9.1,6.1-4.6,9.1-13.1,9.1-25.5v-192.9c0-12.4-3.1-21-9.1-25.5-6.1-4.6-14.9-7.6-26.2-9.1v-6.1h91.7v274.4h-91.7ZM3276.8,871.1h150.1l1.3,11.8,5.1,59.5-7.2.4c-4.3-17.8-12-32.1-23-42.7-11.1-10.7-28.4-16-52.1-16h-74.2v-13h0ZM3276.8,998.4h61c13.9,0,23.6-2.9,28.8-8.7,5.3-5.8,8.7-13.7,10.5-23.6h6.4v77.4h-6.4c-1.7-10.2-5.2-18.1-10.5-23.8-5.3-5.8-14.9-8.6-28.8-8.6h-61v-12.6ZM3276.8,1132.6h70.8c25.3,0,44.1-6.3,56.3-18.9s20.7-29.1,25.6-49.8l7.6.4-7.2,69.8-.9,11.4h-152.3v-12.9h0Z"/>
          <path class="cls-3" d="M3462.7,1145.5v-6.1c11.7-1.5,20.7-4.6,27.3-9.1,6.5-4.6,9.8-13.1,9.8-25.5v-192.9c0-12.4-3.3-21-9.8-25.5-6.5-4.6-15.7-7.6-27.3-9.1v-6.1h54.2v233.7c0,12.4,3.2,21,9.6,25.5s15.4,7.6,27.1,9.1v6.1h-90.9ZM3506.7,909.2l2.5-38.1h36.7l164.2,202.8,5.5,71.7h-16.6l-192.4-236.4h0ZM3702,1118.1l.4-206.2c0-12.4-3.3-21-9.8-25.5-6.5-4.6-15.7-7.6-27.3-9.1v-6.1h89.2v6.1c-11.1,1.5-19.8,4.6-26,9.1s-9.4,13.1-9.4,25.5v233.6h-8.1l-8.9-27.4h0Z"/>
          <path class="cls-3" d="M3920.4,884.1h-59.7c-25.3,0-43.6,5.1-55.1,15.4-11.3,10.3-19.2,24.1-23.5,41.4l-7.6-.8,3.9-57.2.9-11.8h141.2v13h0ZM3842.8,1145.5v-6.1c11.3-1.5,20.2-4.6,26.5-9.1,6.2-4.6,9.4-13.1,9.4-25.5v-233.7h56.7v233.7c0,12.4,3.2,21,9.4,25.5s15,7.6,26.5,9.1v6.1h-128.4ZM4035.6,871.1l.9,11.8,3.9,57.2-7.6.8c-4.3-17.3-12.1-31-23.7-41.4-11.5-10.3-29.9-15.4-55.2-15.4h-59.3v-13h141.2Z"/>
          <path class="cls-3" d="M4123.5,1144.4c-17.6-3.8-35.3-9.5-52.9-17.2l-.9-70.1h7.2c8,27.2,20.5,47.3,37.6,60.4s36.4,19.6,58,19.6,32.1-4.1,43.5-12.2c11.3-8.1,17.1-19.5,17.1-33.9s-3.2-19-9.6-26.5-15.3-14.1-26.6-19.8-26-11.7-44-17.7c-28.8-10.2-50.5-21.7-65.3-34.5s-22.2-28.7-22.2-47.4,4.3-27.3,12.8-39.1c8.5-11.8,21-21.2,37.6-28.2,16.5-7,36-10.5,58.4-10.5s28,1.4,41.4,4.2c13.4,2.8,27.2,6.8,41.4,11.8,3.7,1.5,6.4,2.7,8.1,3.5l.9,67.8h-6.4c-8-26.7-19.4-45.8-34.1-57.3-14.8-11.6-32.1-17.3-52.1-17.3s-22.5,1.8-31.7,5.4c-9.2,3.5-16.3,8.5-21.1,14.9-4.8,6.4-7.2,13.3-7.2,21s2.5,14.6,7.5,20.8,12,12,21.1,17.2c9.1,5.2,21.3,10.9,36.7,16.9,8,3.1,14.5,5.4,19.6,7.2,30.2,11.4,51.6,24.3,64.4,38.5,12.8,14.3,19.2,30.2,19.2,48s-5,32.7-15,44.8c-9.9,12.1-23.1,21-39.5,26.9-16.4,5.8-34.5,8.7-54.4,8.7s-31.8-1.9-49.5-5.8h0Z"/>
        </g>
        <g>
          <rect class="cls-3" x="14.8" y="409.8" width="762.5" height="762.5"/>
          <path class="cls-1" d="M456.8,592.6l-1.5,28.8c0,38.9,17.3,58.4,52.1,58.4s57.7-12,87-35.9c29.2-23.9,43.9-48.2,43.9-72.8s-11.9-45.2-35.7-62c-15.8-11.3-40.6-17.1-74.4-17.1-50.1,0-105.9,14.4-167.7,43.2-61.8,28.8-119.6,74.9-173.6,138.4-70.9,83.9-106.3,160.8-106.3,230.9s13,74.6,39.1,99.7c26,25.1,60.1,37.7,102.2,37.7s126.4-26.6,203.8-80c64.4-43.7,112.8-90.2,145-139.3l21.6-38.7c-8.9,0-45.8,3.2-110.8,9.5s-102.2,10.8-111.5,13.5c-9.5,2.7-17.1,4-23.1,4-16.4,0-24.6-4.8-24.6-14.4,0-15,18.8-27.4,56.5-37.3s101.4-14.8,191.1-14.8,149,4.2,177.7,12.6c4.5,1.2,6.7,2.7,6.7,4.5,0,6.6-17.1,11.4-51.3,14.4-42.6,4.2-64.4,6.3-65.5,6.3-50.6,80.3-116,204.3-196.3,372-4.5,9.6-8.8,14.4-13,14.4s-6.3-3.9-6.3-11.7c0-21,13.9-61.4,41.7-121.3l52.1-117.8c-31.7,32.9-72.2,63.8-121.2,92.6-64,36.5-124.3,54.8-181.1,54.8s-100.1-14.8-130.1-44.5c-30-29.6-45-69.3-45-119.1,0-91.7,45.8-184.8,137.6-279.5,46.1-47.9,101.8-87.7,167.3-119.5,65.5-31.7,122.8-47.7,172.2-47.7s87.1,11.7,113.4,35.1c20.3,19.2,30.5,40.7,30.5,64.7,0,34.2-17.5,67-52.5,98.4-35,31.4-69.6,47.2-103.7,47.2s-69.2-32.1-69.2-96.2,4.2-36.9,12.6-36.9,10.4,8.4,10.4,25.1h0Z"/>
        </g>
      </g>
      <line class="cls-2" x1="4378.5" y1="168" x2="4373.4" y2="1368.4"/>
      <g>
        <path class="cls-4" d="M4476.4,683.1v-11.3c18.4-3.3,33-9.4,44.1-18.4,11-8.9,16.6-24.9,16.6-48V252.6c0-23.1-5.5-39.1-16.6-48-11-8.9-25.8-15-44.1-18.4v-11.3h90.3v430.4c0,23.1,5.5,39.1,16.6,48,11,9,26,15,44.8,18.4v11.3h-151.7ZM4551.2,257.6l2.1-82.5h74.1l259.6,354.9,9.8,153.1h-33.2l-312.6-425.5ZM4872.3,628.7l.7-376c0-23.1-5.5-39.1-16.5-48-11-8.9-26-15-44.8-18.4v-11.3h148.2v11.3c-17.4,3.3-31.3,9.5-41.7,18.4-10.3,9-15.5,25-15.5,48v430.5h-14.8l-15.5-54.4Z"/>
        <path class="cls-4" d="M4964,683.1v-11.3c17.4-3.3,31.2-9.4,41.3-18.4,10.1-8.9,15.2-24.9,15.2-48V252.6c0-23.1-5-39.1-15.2-48-10.1-8.9-23.9-15-41.3-18.4v-11.3h165.8v508.1h-165.8ZM5108.7,175h242.7l1.4,23.3,7.8,109.3-12,1.4c-8-32-21.5-58.1-40.6-78.3-19.1-20.2-48.8-30.3-89.2-30.3h-110v-25.4h0ZM5108.7,410.7h92.4c23.1,0,39.1-5.5,48-16.6,8.9-11,15-26,18.4-44.8h11.3v146.7h-11.3c-3.3-18.8-9.5-33.7-18.4-44.8-9-11-25-16.6-48-16.6h-92.4v-23.9ZM5108.7,657.7h102.3c43.7,0,76.4-12.4,98.1-37,21.7-24.7,37.2-56.1,46.6-94.2l13.4,1.4-13.4,133.4-1.4,21.9h-245.5v-25.4Z"/>
        <path class="cls-4" d="M5394.1,205.1c-10.1-8.2-22.9-14.5-38.4-18.7h-.7v-11.3h218v11.3c-17.9,3.3-30.8,9.1-38.8,17.6-8,8.4-8,23.8,0,45.8l112.9,311.8-27.4,121.5h-41.7l-156.7-433.2c-8-21.7-17-36.6-27.1-44.8ZM5605.4,643.6l141.8-429.7,9.8,50.1-137.5,419.1h-39.5l25.4-39.5ZM5665.7,205.1c-10.6-8.2-23.6-14.5-39.1-18.7h-1.4v-11.3h220.1v11.3c-17.9,3.3-30.8,9.1-38.8,17.6-8,8.4-8.3,23.8-.7,45.8l107.3,298.5-20.5,134.8h-43l-156-433.2c-8-21.6-17.3-36.5-27.8-44.7ZM5875.6,651.3l130.6-401.4c7.1-22.1,6.5-37.4-1.7-45.8-8.3-8.4-21.3-14.3-39.1-17.6v-11.3h143.2v11.3h-.7c-17.4,3.3-32.4,9.3-44.8,18-12.4,8.7-22.2,23.9-29.3,45.5l-141.2,433.2h-38.8l21.9-31.7Z"/>
        <path class="cls-4" d="M6331.4,200.4h-89.6c-43.7,0-75.8,9.6-95.9,28.9-20.2,19.3-34.3,44.2-42.3,74.8l-12.7-.7,5.7-105.2,1.4-23.3h233.5v25.4ZM6198.8,683.1v-11.3c17.9-3.3,32.2-9.4,43-18.4,10.8-8.9,16.2-24.9,16.2-48V175h108.6v430.4c0,23.1,5.4,39.1,16.2,48,10.8,9,25.1,15,43,18.4v11.3h-227.1ZM6527.5,175l1.4,23.3,5.7,105.1-12.7.7c-8-30.6-22.1-55.5-42.3-74.8-20.2-19.3-52.2-28.9-95.9-28.9h-88.9v-25.4h232.8Z"/>
        <path class="cls-4" d="M6652.1,657.7c-37.4-22.1-67-53.2-88.9-93.5-21.9-40.3-32.8-85.7-32.8-136.5s10.9-95.2,32.8-134.8c21.9-39.5,51.5-70.2,88.9-92.1,37.4-21.9,78.5-32.8,123.1-32.8s85.7,10.9,123.1,32.8c37.4,21.9,67,52.7,88.9,92.4,21.9,39.8,32.8,84.6,32.8,134.4s-10.9,96.3-32.8,136.5c-21.9,40.3-51.5,71.4-88.9,93.5-37.4,22.1-78.5,33.2-123.1,33.2-44.7,0-85.7-10.9-123.1-33.1ZM6845.1,632.3c18.8-23.6,32.7-53.5,41.7-90,8.9-36.5,13.4-74.9,13.4-115.4s-4.5-77.8-13.4-113.6c-9-35.8-22.8-65.1-41.7-87.8-18.8-22.8-42.1-34.2-69.9-34.2s-50.3,11.5-69.2,34.6c-18.8,23.1-32.8,52.7-42,88.9s-13.8,74.4-13.8,114.3,4.6,78.2,13.8,114.7c9.1,36.5,23.2,66.2,42,89.2,18.8,23.1,41.8,34.6,69.2,34.6,27.8-.2,51-11.9,69.9-35.4Z"/>
        <path class="cls-4" d="M7004.2,205.1c-10.1-8.2-22.9-14.5-38.4-18.7h-.7v-11.3h218v11.3c-17.9,3.3-30.8,9.1-38.8,17.6-8,8.4-8,23.8,0,45.8l112.9,311.8-27.4,121.5h-41.7l-156.7-433.2c-8-21.7-16.9-36.6-27.1-44.8ZM7215.5,643.6l141.8-429.7,9.8,50.1-137.5,419.1h-39.5l25.4-39.5ZM7275.8,205.1c-10.6-8.2-23.6-14.5-39.1-18.7h-1.4v-11.3h220.1v11.3c-17.9,3.3-30.8,9.1-38.8,17.6-8,8.4-8.3,23.8-.7,45.8l107.4,298.5-20.5,134.8h-43l-156-433.2c-8-21.7-17.3-36.6-27.9-44.8ZM7485.8,651.3l130.5-401.4c7.1-22.1,6.5-37.4-1.7-45.8-8.3-8.4-21.3-14.3-39.1-17.6v-11.3h143.2v11.3h-.7c-17.4,3.3-32.4,9.3-44.8,18-12.4,8.7-22.2,23.9-29.3,45.5l-141.1,433.3h-38.8l21.9-31.8Z"/>
        <path class="cls-4" d="M7708.7,683.1v-11.3c18.4-3.3,33-9.4,44.1-18.4,11-8.9,16.5-24.9,16.5-48V252.6c0-23.1-5.5-39.1-16.5-48-11-8.9-25.8-15-44.1-18.4v-11.3h90.3v430.4c0,23.1,5.5,39.1,16.6,48,11,9,26,15,44.8,18.4v11.3h-151.7ZM7783.5,257.6l2.1-82.5h74.1l259.6,354.9,9.8,153.1h-33.2l-312.6-425.5ZM8104.6,628.7l.7-376c0-23.1-5.5-39.1-16.5-48-11-8.9-26-15-44.8-18.4v-11.3h148.2v11.3c-17.4,3.3-31.3,9.5-41.6,18.4-10.3,9-15.5,25-15.5,48v430.5h-14.8l-15.6-54.4Z"/>
        <path class="cls-4" d="M4768.2,1401.7v-11.3c17.4-3.3,31.2-9.4,41.3-18.4,10.1-8.9,15.2-24.9,15.2-48v-352.8c0-23.1-5-39.1-15.2-48-10.1-8.9-23.9-15-41.3-18.4v-11.3h165.8v508.1h-165.8ZM4912.2,1377h52.9c32.9,0,60.9-10.6,84-31.7,23.1-21.2,40.3-49.3,51.5-84.3,11.3-35.1,16.9-73.5,16.9-115.4-.5-40-6.4-77.1-17.6-111.5s-28.4-62.1-51.1-83.3c-22.8-21.2-50.7-31.7-83.6-31.7h-48l-8.4.7v.7-26.8h88.2c43.2,0,83.1,10.6,119.6,31.7,36.5,21.2,65.5,50.8,87.1,88.9,21.7,38.1,32.5,81.8,32.5,131.2s-10.8,96.2-32.5,134.8-50.7,68.4-87.1,89.6c-36.5,21.2-76.3,31.7-119.6,31.7h-84.7v-24.8h-.2Z"/>
        <path class="cls-4" d="M5226.8,1401.7v-11.3c17.4-3.3,31-9.4,41-18.4,9.8-8.9,14.8-24.9,14.8-48v-352.8c0-23.1-5-39.1-14.8-48-9.8-8.9-23.6-15-41-18.4v-11.3h221.6v11.3c-17.4,3.3-31.2,9.5-41.3,18.4-10.2,9-15.2,25-15.2,48v352.8c0,23.1,5,39.1,15.2,48,10.1,9,23.9,15,41.3,18.4v11.3h-221.6ZM5372.9,1134.3h220.2v25.4h-220.2v-25.4ZM5516.2,1401.7v-11.3c17.9-3.3,31.7-9.4,41.7-18.4,9.8-8.9,14.8-24.9,14.8-48v-352.8c0-23.1-5-39.1-14.8-48-9.8-8.9-23.8-15-41.7-18.4v-11.3h222.3v11.3c-17.4,3.3-31.2,9.5-41.3,18.4-10.1,9-15.2,25-15.2,48v352.8c0,23.1,5,39.1,15.2,48,10.1,9,23.9,15,41.3,18.4v11.3h-222.3Z"/>
        <path class="cls-4" d="M5729.9,1401.7v-11.3h1.4c16.9-3.3,31.7-9.1,44.4-17.6,12.7-8.4,23.3-23.6,31.7-45.1l170.8-433.9h23.3l-5,23.3-161.6,410.6c-8.5,22.1-8.8,37.3-1,45.5,7.8,8.3,20.6,14,38.4,17.3v11.3h-142.6ZM5869.6,1208.4h246.9l2.1,24h-258.3l9.2-24ZM6043.2,1401.7v-11.3c17.9-3.3,30.7-9.1,38.4-17.3,7.8-8.2,7.4-23.4-1-45.5l-131.2-326.7,45.1-107.3h26.1l176.4,433.9c8,21.2,17.3,35.8,27.9,44.1,10.6,8.3,22.9,14.3,37,18l1.4.7v11.3h-220.1Z"/>
        <path class="cls-4" d="M6236.5,1401.7v-11.3c18.4-3.3,33-9.4,44.1-18.4,11-8.9,16.6-24.9,16.6-48v-352.8c0-23.1-5.5-39.1-16.6-48-11-8.9-25.8-15-44.1-18.4v-11.3h90.3v430.4c0,23.1,5.5,39.1,16.6,48,11,9,26,15,44.8,18.4v11.3h-151.7ZM6311.3,976.3l2.1-82.5h74.1l259.6,354.9,9.8,153.1h-33.2l-312.6-425.5ZM6632.3,1347.4l.7-376c0-23.1-5.5-39.1-16.5-48-11-8.9-26-15-44.8-18.4v-11.3h148.2v11.3c-17.4,3.3-31.3,9.5-41.6,18.4-10.3,9-15.5,25-15.5,48v430.4h-14.8l-15.6-54.4Z"/>
        <path class="cls-4" d="M6839.4,1376.3c-37.4-22.1-67-53.2-88.9-93.5-21.9-40.3-32.8-85.7-32.8-136.5s10.9-95.2,32.8-134.8c21.9-39.5,51.5-70.2,88.9-92.1,37.4-21.9,78.5-32.8,123.1-32.8s85.7,10.9,123.1,32.8,67,52.7,88.9,92.4c21.9,39.8,32.8,84.6,32.8,134.4s-10.9,96.3-32.8,136.5c-21.9,40.3-51.5,71.4-88.9,93.5s-78.5,33.2-123.1,33.2c-44.7,0-85.7-10.9-123.1-33.1ZM7032.4,1350.9c18.8-23.6,32.7-53.5,41.7-90,8.9-36.5,13.4-74.9,13.4-115.4s-4.5-77.8-13.4-113.6c-9-35.8-22.8-65.1-41.7-87.8-18.8-22.8-42.1-34.2-69.9-34.2s-50.3,11.5-69.2,34.6c-18.8,23.1-32.8,52.7-42,88.9s-13.8,74.4-13.8,114.3,4.6,78.2,13.8,114.7c9.1,36.5,23.2,66.2,42,89.2,18.8,23.1,41.8,34.6,69.2,34.6,27.8,0,51-11.8,69.9-35.4Z"/>
        <path class="cls-4" d="M7198.2,1401.7v-11.3c17.4-3.3,31.2-9.4,41.3-18.4,10.1-8.9,15.2-24.9,15.2-48v-352.8c0-23.1-5-39.1-15.2-48-10.1-8.9-23.9-15-41.3-18.4v-11.3h165.1v430.4c0,23.1,5,39.1,15.2,48,10.1,9,23.9,15,41.3,18.4v11.3h-221.6ZM7354.8,1142.8h69.9c25.4,0,45.1-10,58.9-30s20.8-47.2,20.8-81.5-7.3-62.1-21.9-83.3-36-31.7-64.2-31.7h-91.7l-19.1-22.6h148.2c31.5,0,59.2,5.4,83.3,16.2,24,10.8,42.8,26.1,56.5,45.8,13.6,19.8,20.5,43,20.5,69.9s-7.3,53.7-21.9,73.7-34.5,35.1-59.6,45.1c-25.2,10.2-53,15-83.6,14.5l-13.4,7.8h-102.3l19.7-23.9ZM7404.2,1160.4l103.7-14.1,118.5,187c12.2,18.4,23.6,31.4,33.9,39.1,10.3,7.8,21.7,13.5,33.9,17.3l2.8.7v11.3h-147.5l-145.3-241.3Z"/>
        <path class="cls-4" d="M7670.9,1401.7v-11.3c17.9-3.3,32.1-9.4,42.7-18.4,10.6-8.9,15.9-24.9,15.9-48v-352.8c0-23.1-5.3-39.1-15.9-48-10.6-8.9-24.8-15-42.7-18.4v-11.3h223.6v11.3c-17.9,3.3-32.1,9.5-42.7,18.4-10.6,9-15.9,25-15.9,48v352.8c0,23.1,5.3,39.1,15.9,48,10.6,9,24.8,15,42.7,18.4v11.3h-223.6Z"/>
      </g>
    </g>
  </g>
</svg>